<?xml version="1.0" encoding="UTF-8"?>
<svg width="512px" height="512px" viewBox="0 0 512 512" version="1.1" xmlns="http://www.w3.org/2000/svg">
    <title>rest-api</title>
    <g id="rest-api" stroke="none" stroke-width="1" fill="none" fill-rule="evenodd">
        <g id="swagger_logo" transform="translate(10.000000, 10.000000)" fill-rule="nonzero">
            <g id="Group">
                <g>
                    <path d="M245.997541,480.272133 C116.820189,480.272133 11.7228324,375.183561 11.7228324,246 C11.7228324,116.816439 116.820189,11.727867 245.997541,11.727867 C375.174894,11.727867 480.27225,116.826274 480.27225,246.004917 C480.27225,375.183561 375.174894,480.272133 245.997541,480.272133 Z" id="Path" fill="#85EA2D"></path>
                    <path d="M245.997541,23.4508166 C368.910259,23.4508166 468.544501,123.086054 468.544501,246 C468.544501,368.909029 368.910259,468.549183 245.997541,468.549183 C123.089741,468.549183 23.4505822,368.909029 23.4505822,246 C23.4505822,123.090971 123.089741,23.4508166 245.997541,23.4508166 M245.997541,0 C110.353945,0 -9.55376567e-15,110.355048 -9.55376567e-15,246 C-9.55376567e-15,381.644952 110.353945,492 245.997541,492 C381.641137,492 492,381.644952 492,246 C492,110.355048 381.641137,0 245.997541,0 L245.997541,0 Z" id="Shape" fill="#173647"></path>
                </g>
                <path d="M154.899725,166.471785 C154.142462,174.890279 155.180011,183.593979 154.619439,192.105903 C153.955604,200.622744 152.913138,209.041238 151.211754,217.459732 C148.846534,229.472805 141.372245,238.55514 131.065594,246.122934 C151.123242,259.178484 153.390115,279.418274 154.712868,299.948188 C155.376703,311.017131 155.0915,322.179503 156.227395,333.150099 C157.078087,341.662023 160.387427,343.840406 169.189386,344.120695 C172.783929,344.214124 176.466983,344.120695 180.63685,344.120695 L180.63685,370.418654 C154.624357,374.863933 133.150527,367.487917 127.849683,345.448378 C126.143381,337.408519 125.007486,329.176884 124.633771,320.85182 C124.063365,312.05469 125.007486,303.257561 124.348568,294.460431 C122.45541,270.335939 119.332927,262.202651 96.2560592,261.066744 L96.2560592,231.080776 C97.9574434,230.702141 99.565399,230.416935 101.266783,230.230076 C113.943571,229.566234 119.332927,225.686449 122.076778,213.201311 C123.404448,206.20393 124.161711,199.108202 124.441997,191.919044 C125.391035,178.20457 125.012403,164.204889 127.372705,150.583845 C130.682045,131.002978 142.793344,121.542007 162.944421,120.406101 C168.61898,120.120895 174.391884,120.406101 180.917136,120.406101 L180.917136,147.274472 C178.173285,147.466248 175.808066,147.839966 173.349418,147.839966 C156.984658,147.269554 156.129049,152.850741 154.899725,166.471785 Z M186.39992,228.715534 L186.021288,228.715534 C176.560412,228.243469 168.427205,235.619485 167.950227,245.080457 C167.478167,254.634857 174.85411,262.773063 184.314987,263.24021 L185.450882,263.24021 C194.81833,263.810622 202.853191,256.616547 203.423597,247.253923 L203.423597,246.309793 C203.615372,236.755392 195.954225,228.90731 186.39992,228.715534 Z M245.712338,228.715534 C236.536665,228.430328 228.870601,235.619485 228.590315,244.701821 C228.590315,245.272233 228.590315,245.744298 228.688661,246.309793 C228.688661,256.621464 235.685973,263.245128 246.282744,263.245128 C256.687742,263.245128 263.21791,256.434605 263.21791,245.744298 C263.119564,235.432626 256.210764,228.622104 245.712338,228.715534 Z M306.445855,228.715534 C296.798121,228.523757 288.753426,236.189897 288.47314,245.837728 C288.47314,255.485558 296.227715,263.24021 305.875449,263.24021 L306.067223,263.24021 C314.770836,264.754752 323.567878,256.336258 324.138284,246.216363 C324.605427,236.848822 316.093589,228.715534 306.445855,228.715534 Z M389.784179,230.131729 C378.808775,229.659664 373.321073,225.971655 370.58214,215.561637 C368.875838,208.942891 367.838289,202.034022 367.459657,195.223499 C366.702394,182.546585 366.795822,169.776241 365.94513,157.099326 C363.958543,127.019929 342.204428,116.521398 310.605887,121.719032 L310.605887,147.830132 C315.616611,147.830132 319.496357,147.830132 323.376103,147.923561 C330.093129,148.016991 335.202199,150.57401 335.861116,158.048374 C336.524951,164.858896 336.524951,171.762848 337.188786,178.671717 C338.516456,192.391109 339.268802,206.292442 341.634021,219.820057 C343.718955,230.982429 351.380101,239.307494 360.929489,246.118016 C344.191015,257.373818 339.268802,273.453535 338.41811,291.524777 C337.94605,303.916485 337.660847,316.401623 337.001929,328.891678 C336.431523,340.24091 332.463265,343.928918 321.015801,344.214124 C317.79989,344.307554 314.677407,344.59276 311.082864,344.784536 L311.082864,371.554561 C317.79989,371.554561 323.946509,371.933196 330.093129,371.554561 C349.201739,370.418654 360.742632,361.149459 364.528949,342.606153 C366.136905,332.387911 367.081025,322.081156 367.366229,311.769484 C368.025146,302.308513 367.936635,292.754113 368.880756,283.391489 C370.296937,268.727967 377.013962,262.674716 391.677337,261.730585 C393.098436,261.538809 394.421188,261.25852 395.748858,260.786455 L395.748858,230.79557 C393.285293,230.510364 391.578992,230.230076 389.784179,230.131729 Z" id="Shape" fill="#173647"></path>
            </g>
        </g>
    </g>
</svg>
